<?xml version="1.0" standalone="no"?>
<!DOCTYPE svg PUBLIC "-//W3C//DTD SVG 1.1//EN"
  "http://www.w3.org/Graphics/SVG/1.1/DTD/svg11.dtd">
<svg width="82mm" height="141.99999999999997mm" viewBox="-59 -58.999999999999986 82 141.99999999999997" xmlns="http://www.w3.org/2000/svg" version="1.1">
	<title>svgOutput</title>
	<desc>made with tinkercad</desc>
<path d="M 21.7450008392334 -57.61500167846678 L 21.75819969177246 -57.59999847412108 L 21.854999542236328 -57.49000167846678 L 21.934999465942383 -57.354999542236314 L 21.93879508972168 -57.34400177001952 L 21.983999252319336 -57.21300125122069 L 22 -57.06700134277342 L 22 -56.83200073242186 L 22 -56.319999694824205 L 22 -55.29600143432616 L 22 -53.2480010986328 L 22 -49.15200042724608 L 22 -40.95999908447265 L 22 -32.76800155639648 L 22 -24.57600021362304 L 22 -16.38400077819824 L 22 -8.19200038909912 L 22 1.1102230246251565e-16 L 22 8.19200038909912 L 22 16.38400077819824 L 22 24.57600021362304 L 22 32.76800155639648 L 22 40.95999908447265 L 22 49.15200042724608 L 22 57.34400177001952 L 22 65.53600311279295 L 22 73.72799682617186 L 22 77.82399749755858 L 22 79.8720016479492 L 22 80.89600372314452 L 22 81.06700134277342 L 21.990684509277344 81.15200042724608 L 21.983999252319336 81.21299743652342 L 21.934999465942383 81.35500335693358 L 21.903593063354492 81.40799713134764 L 21.854999542236328 81.48999786376952 L 21.760000228881836 81.5979537963867 L 21.7450008392334 81.61499786376952 L 21.68549919128418 81.66400146484374 L 21.608999252319336 81.72699737548827 L 21.503999710083008 81.78973388671874 L 21.450000762939453 81.82199859619139 L 21.27199935913086 81.8980026245117 L 21.24799919128418 81.9049606323242 L 21.196178436279297 81.9199981689453 L 21.07900047302246 81.95400238037108 L 20.875 81.98899841308592 L 20.66699981689453 81.99999999999999 L 16.384000778198242 81.99999999999999 L 0 81.99999999999999 L -16.384000778198242 81.99999999999999 L -32.768001556396484 81.99999999999999 L -49.152000427246094 81.99999999999999 L -56.66699981689453 81.99999999999999 L -56.875 81.98899841308592 L -57.07899856567383 81.95400238037108 L -57.1961784362793 81.9199981689453 L -57.27199935913086 81.8980026245117 L -57.34400177001953 81.86725616455077 L -57.45000076293945 81.82199859619139 L -57.60900115966797 81.72699737548827 L -57.68550109863281 81.66400146484374 L -57.744998931884766 81.61499786376952 L -57.85499954223633 81.48999786376952 L -57.85599899291992 81.48831176757811 L -57.90359115600586 81.40799713134764 L -57.935001373291016 81.35500335693358 L -57.98400115966797 81.21299743652342 L -58 81.06700134277342 L -58 80.89600372314452 L -58 79.8720016479492 L -58 77.82399749755858 L -58 73.72799682617186 L -58 65.53600311279295 L -58 57.34400177001952 L -58 49.15200042724608 L -58 40.95999908447265 L -58 32.76800155639648 L -58 24.57600021362304 L -58 16.38400077819824 L -58 8.19200038909912 L -58 1.1102230246251565e-16 L -58 -8.19200038909912 L -58 -16.38400077819824 L -58 -24.57600021362304 L -58 -32.76800155639648 L -58 -40.95999908447265 L -58 -49.15200042724608 L -58 -53.2480010986328 L -58 -55.29600143432616 L -58 -56.319999694824205 L -58 -56.83200073242186 L -58 -57.06700134277342 L -57.98400115966797 -57.21300125122069 L -57.93879699707031 -57.34400177001952 L -57.935001373291016 -57.354999542236314 L -57.85599899291992 -57.48831176757811 L -57.85499954223633 -57.49000167846678 L -57.758201599121094 -57.59999847412108 L -57.744998931884766 -57.61500167846678 L -57.60900115966797 -57.72700119018553 L -57.599998474121094 -57.7323760986328 L -57.45000076293945 -57.82199859619139 L -57.37036895751953 -57.85599899291991 L -57.34400177001953 -57.86725997924803 L -57.27199935913086 -57.89799880981444 L -57.0880012512207 -57.951389312744126 L -57.07899856567383 -57.953998565673814 L -56.875 -57.98899841308592 L -56.832000732421875 -57.9912757873535 L -56.66699981689453 -57.999999999999986 L -56.31999969482422 -57.999999999999986 L -55.29600143432617 -57.999999999999986 L -53.24800109863281 -57.999999999999986 L -49.152000427246094 -57.999999999999986 L -40.959999084472656 -57.999999999999986 L -32.768001556396484 -57.999999999999986 L -24.576000213623047 -57.999999999999986 L -16.384000778198242 -57.999999999999986 L -8.192000389099121 -57.999999999999986 L 0 -57.999999999999986 L 8.192000389099121 -57.999999999999986 L 16.384000778198242 -57.999999999999986 L 20.479999542236328 -57.999999999999986 L 20.66699981689453 -57.999999999999986 L 20.875 -57.98899841308592 L 20.992000579833984 -57.968925476074205 L 21.07900047302246 -57.953998565673814 L 21.27199935913086 -57.89799880981444 L 21.37036895751953 -57.85599899291991 L 21.450000762939453 -57.82199859619139 L 21.503999710083008 -57.789737701416 L 21.608999252319336 -57.72700119018553 L 21.7450008392334 -57.61500167846678 z" fill="none" stroke="rgb(255,0,0)" stroke-width="0.001mm" />
</svg>