  0
SECTION
  2
HEADER
  9
$ACADVER
  1
AC1009
  9
$EXTMIN
 10
0.0
 20
0.0
 30
0.0
  9
$EXTMAX
 10
1000.0
 20
1000.0
 30
0.0
  9
$FILLMODE
 70
 0
  9
$SPLFRAME
 70
 1
  0
ENDSEC
  0
SECTION
  2
TABLES
  0
TABLE
  2
LAYER
 70
1
  0
LAYER
  2
0
 70
     0
 62
     7
  6
CONTINUOUS
  0
ENDTAB
  0
ENDSEC
  0
SECTION
  2
ENTITIES
  0
POLYLINE
  8
0
 62
     0
 66
     1
 10
0
 20
0
 30
0.0
 40
25.4
 41
25.4
  0
VERTEX
  8
0
 10
0.176378
 20
90.1847
 30
0.0
 40
0.352778
 41
0.352778
  0
VERTEX
  8
0
 10
36.9794
 20
90.1847
 30
0.0
 40
0.352778
 41
0.352778
  0
SEQEND
 8
0
  0
POLYLINE
  8
0
 62
     0
 66
     1
 10
0
 20
0
 30
0.0
 40
25.4
 41
25.4
  0
VERTEX
  8
0
 10
0.176378
 20
82.9867
 30
0.0
 40
0.352778
 41
0.352778
  0
VERTEX
  8
0
 10
0.176378
 20
36.9876
 30
0.0
 40
0.352778
 41
0.352778
  0
SEQEND
 8
0
  0
POLYLINE
  8
0
 62
     0
 66
     1
 10
0
 20
0
 30
0.0
 40
25.4
 41
25.4
  0
VERTEX
  8
0
 10
36.9794
 20
90.1847
 30
0.0
 40
0.352778
 41
0.352778
  0
VERTEX
  8
0
 10
60.1765
 20
90.1847
 30
0.0
 40
0.352778
 41
0.352778
  0
VERTEX
  8
0
 10
60.1765
 20
120.185
 30
0.0
 40
0.352778
 41
0.352778
  0
VERTEX
  8
0
 10
0.176378
 20
120.185
 30
0.0
 40
0.352778
 41
0.352778
  0
VERTEX
  8
0
 10
0.176378
 20
82.9867
 30
0.0
 40
0.352778
 41
0.352778
  0
SEQEND
 8
0
  0
POLYLINE
  8
0
 62
     0
 66
     1
 10
0
 20
0
 30
0.0
 70
     1
 40
25.4
 41
25.4
  0
VERTEX
  8
0
 10
31.2044
 20
112.956
 30
0.0
 40
0.352778
 41
0.352778
  0
VERTEX
  8
0
 10
31.8254
 20
112.863
 30
0.0
 40
0.352778
 41
0.352778
  0
VERTEX
  8
0
 10
32.4354
 20
112.711
 30
0.0
 40
0.352778
 41
0.352778
  0
VERTEX
  8
0
 10
33.0265
 20
112.499
 30
0.0
 40
0.352778
 41
0.352778
  0
VERTEX
  8
0
 10
33.5944
 20
112.231
 30
0.0
 40
0.352778
 41
0.352778
  0
VERTEX
  8
0
 10
34.1335
 20
111.907
 30
0.0
 40
0.352778
 41
0.352778
  0
VERTEX
  8
0
 10
34.6385
 20
111.533
 30
0.0
 40
0.352778
 41
0.352778
  0
VERTEX
  8
0
 10
35.1035
 20
111.111
 30
0.0
 40
0.352778
 41
0.352778
  0
VERTEX
  8
0
 10
35.5254
 20
110.646
 30
0.0
 40
0.352778
 41
0.352778
  0
VERTEX
  8
0
 10
35.8994
 20
110.141
 30
0.0
 40
0.352778
 41
0.352778
  0
VERTEX
  8
0
 10
35.989
 20
109.992
 30
0.0
 40
0.352778
 41
0.352778
  0
VERTEX
  8
0
 10
36.2235
 20
109.602
 30
0.0
 40
0.352778
 41
0.352778
  0
VERTEX
  8
0
 10
36.4915
 20
109.034
 30
0.0
 40
0.352778
 41
0.352778
  0
VERTEX
  8
0
 10
36.7035
 20
108.443
 30
0.0
 40
0.352778
 41
0.352778
  0
VERTEX
  8
0
 10
36.8554
 20
107.833
 30
0.0
 40
0.352778
 41
0.352778
  0
VERTEX
  8
0
 10
36.9485
 20
107.212
 30
0.0
 40
0.352778
 41
0.352778
  0
VERTEX
  8
0
 10
36.9794
 20
106.584
 30
0.0
 40
0.352778
 41
0.352778
  0
VERTEX
  8
0
 10
36.9485
 20
105.956
 30
0.0
 40
0.352778
 41
0.352778
  0
VERTEX
  8
0
 10
36.9394
 20
105.896
 30
0.0
 40
0.352778
 41
0.352778
  0
VERTEX
  8
0
 10
36.8554
 20
105.335
 30
0.0
 40
0.352778
 41
0.352778
  0
VERTEX
  8
0
 10
36.7035
 20
104.725
 30
0.0
 40
0.352778
 41
0.352778
  0
VERTEX
  8
0
 10
36.4915
 20
104.134
 30
0.0
 40
0.352778
 41
0.352778
  0
VERTEX
  8
0
 10
36.2235
 20
103.566
 30
0.0
 40
0.352778
 41
0.352778
  0
VERTEX
  8
0
 10
35.8994
 20
103.027
 30
0.0
 40
0.352778
 41
0.352778
  0
VERTEX
  8
0
 10
35.5254
 20
102.522
 30
0.0
 40
0.352778
 41
0.352778
  0
VERTEX
  8
0
 10
35.1035
 20
102.057
 30
0.0
 40
0.352778
 41
0.352778
  0
VERTEX
  8
0
 10
34.8203
 20
101.8
 30
0.0
 40
0.352778
 41
0.352778
  0
VERTEX
  8
0
 10
34.6385
 20
101.635
 30
0.0
 40
0.352778
 41
0.352778
  0
VERTEX
  8
0
 10
34.1335
 20
101.261
 30
0.0
 40
0.352778
 41
0.352778
  0
VERTEX
  8
0
 10
33.5944
 20
100.937
 30
0.0
 40
0.352778
 41
0.352778
  0
VERTEX
  8
0
 10
33.0265
 20
100.669
 30
0.0
 40
0.352778
 41
0.352778
  0
VERTEX
  8
0
 10
32.4354
 20
100.457
 30
0.0
 40
0.352778
 41
0.352778
  0
VERTEX
  8
0
 10
31.8254
 20
100.305
 30
0.0
 40
0.352778
 41
0.352778
  0
VERTEX
  8
0
 10
31.2044
 20
100.212
 30
0.0
 40
0.352778
 41
0.352778
  0
VERTEX
  8
0
 10
30.7525
 20
100.19
 30
0.0
 40
0.352778
 41
0.352778
  0
VERTEX
  8
0
 10
30.5764
 20
100.181
 30
0.0
 40
0.352778
 41
0.352778
  0
VERTEX
  8
0
 10
29.9485
 20
100.212
 30
0.0
 40
0.352778
 41
0.352778
  0
VERTEX
  8
0
 10
29.3275
 20
100.305
 30
0.0
 40
0.352778
 41
0.352778
  0
VERTEX
  8
0
 10
28.7175
 20
100.457
 30
0.0
 40
0.352778
 41
0.352778
  0
VERTEX
  8
0
 10
28.1265
 20
100.669
 30
0.0
 40
0.352778
 41
0.352778
  0
VERTEX
  8
0
 10
27.5585
 20
100.937
 30
0.0
 40
0.352778
 41
0.352778
  0
VERTEX
  8
0
 10
27.0194
 20
101.261
 30
0.0
 40
0.352778
 41
0.352778
  0
VERTEX
  8
0
 10
26.5144
 20
101.635
 30
0.0
 40
0.352778
 41
0.352778
  0
VERTEX
  8
0
 10
26.3326
 20
101.8
 30
0.0
 40
0.352778
 41
0.352778
  0
VERTEX
  8
0
 10
26.0494
 20
102.057
 30
0.0
 40
0.352778
 41
0.352778
  0
VERTEX
  8
0
 10
25.6275
 20
102.522
 30
0.0
 40
0.352778
 41
0.352778
  0
VERTEX
  8
0
 10
25.2535
 20
103.027
 30
0.0
 40
0.352778
 41
0.352778
  0
VERTEX
  8
0
 10
24.9304
 20
103.566
 30
0.0
 40
0.352778
 41
0.352778
  0
VERTEX
  8
0
 10
24.6615
 20
104.134
 30
0.0
 40
0.352778
 41
0.352778
  0
VERTEX
  8
0
 10
24.4494
 20
104.725
 30
0.0
 40
0.352778
 41
0.352778
  0
VERTEX
  8
0
 10
24.2974
 20
105.335
 30
0.0
 40
0.352778
 41
0.352778
  0
VERTEX
  8
0
 10
24.2135
 20
105.896
 30
0.0
 40
0.352778
 41
0.352778
  0
VERTEX
  8
0
 10
24.2044
 20
105.956
 30
0.0
 40
0.352778
 41
0.352778
  0
VERTEX
  8
0
 10
24.1744
 20
106.584
 30
0.0
 40
0.352778
 41
0.352778
  0
VERTEX
  8
0
 10
24.2044
 20
107.212
 30
0.0
 40
0.352778
 41
0.352778
  0
VERTEX
  8
0
 10
24.2974
 20
107.833
 30
0.0
 40
0.352778
 41
0.352778
  0
VERTEX
  8
0
 10
24.4494
 20
108.443
 30
0.0
 40
0.352778
 41
0.352778
  0
VERTEX
  8
0
 10
24.6614
 20
109.034
 30
0.0
 40
0.352778
 41
0.352778
  0
VERTEX
  8
0
 10
24.9304
 20
109.602
 30
0.0
 40
0.352778
 41
0.352778
  0
VERTEX
  8
0
 10
25.1642
 20
109.992
 30
0.0
 40
0.352778
 41
0.352778
  0
VERTEX
  8
0
 10
25.2535
 20
110.141
 30
0.0
 40
0.352778
 41
0.352778
  0
VERTEX
  8
0
 10
25.6275
 20
110.646
 30
0.0
 40
0.352778
 41
0.352778
  0
VERTEX
  8
0
 10
26.0494
 20
111.111
 30
0.0
 40
0.352778
 41
0.352778
  0
VERTEX
  8
0
 10
26.5144
 20
111.533
 30
0.0
 40
0.352778
 41
0.352778
  0
VERTEX
  8
0
 10
27.0194
 20
111.907
 30
0.0
 40
0.352778
 41
0.352778
  0
VERTEX
  8
0
 10
27.5585
 20
112.231
 30
0.0
 40
0.352778
 41
0.352778
  0
VERTEX
  8
0
 10
28.1264
 20
112.499
 30
0.0
 40
0.352778
 41
0.352778
  0
VERTEX
  8
0
 10
28.7175
 20
112.711
 30
0.0
 40
0.352778
 41
0.352778
  0
VERTEX
  8
0
 10
29.3274
 20
112.863
 30
0.0
 40
0.352778
 41
0.352778
  0
VERTEX
  8
0
 10
29.9485
 20
112.956
 30
0.0
 40
0.352778
 41
0.352778
  0
VERTEX
  8
0
 10
30.5764
 20
112.986
 30
0.0
 40
0.352778
 41
0.352778
  0
VERTEX
  8
0
 10
31.2046
 20
112.958
 30
0.0
 40
0.352778
 41
0.352778
  0
VERTEX
  8
0
 10
31.2044
 20
112.956
 30
0.0
 40
0.352778
 41
0.352778
  0
SEQEND
 8
0
  0
POLYLINE
  8
0
 62
     0
 66
     1
 10
0
 20
0
 30
0.0
 40
25.4
 41
25.4
  0
VERTEX
  8
0
 10
60.1765
 20
90.1847
 30
0.0
 40
0.352778
 41
0.352778
  0
VERTEX
  8
0
 10
60.1765
 20
60.1846
 30
0.0
 40
0.352778
 41
0.352778
  0
VERTEX
  8
0
 10
0.176378
 20
60.1846
 30
0.0
 40
0.352778
 41
0.352778
  0
SEQEND
 8
0
  0
POLYLINE
  8
0
 62
     0
 66
     1
 10
0
 20
0
 30
0.0
 70
     1
 40
25.4
 41
25.4
  0
VERTEX
  8
0
 10
31.2044
 20
82.9563
 30
0.0
 40
0.352778
 41
0.352778
  0
VERTEX
  8
0
 10
31.8254
 20
82.8633
 30
0.0
 40
0.352778
 41
0.352778
  0
VERTEX
  8
0
 10
32.4354
 20
82.7113
 30
0.0
 40
0.352778
 41
0.352778
  0
VERTEX
  8
0
 10
33.0265
 20
82.4993
 30
0.0
 40
0.352778
 41
0.352778
  0
VERTEX
  8
0
 10
33.5944
 20
82.2312
 30
0.0
 40
0.352778
 41
0.352778
  0
VERTEX
  8
0
 10
34.1335
 20
81.9072
 30
0.0
 40
0.352778
 41
0.352778
  0
VERTEX
  8
0
 10
34.6385
 20
81.5332
 30
0.0
 40
0.352778
 41
0.352778
  0
VERTEX
  8
0
 10
35.1035
 20
81.1112
 30
0.0
 40
0.352778
 41
0.352778
  0
VERTEX
  8
0
 10
35.5254
 20
80.6462
 30
0.0
 40
0.352778
 41
0.352778
  0
VERTEX
  8
0
 10
35.8994
 20
80.1412
 30
0.0
 40
0.352778
 41
0.352778
  0
VERTEX
  8
0
 10
35.989
 20
79.9924
 30
0.0
 40
0.352778
 41
0.352778
  0
VERTEX
  8
0
 10
36.2235
 20
79.6022
 30
0.0
 40
0.352778
 41
0.352778
  0
VERTEX
  8
0
 10
36.4915
 20
79.0343
 30
0.0
 40
0.352778
 41
0.352778
  0
VERTEX
  8
0
 10
36.7035
 20
78.4432
 30
0.0
 40
0.352778
 41
0.352778
  0
VERTEX
  8
0
 10
36.8554
 20
77.8333
 30
0.0
 40
0.352778
 41
0.352778
  0
VERTEX
  8
0
 10
36.9485
 20
77.2124
 30
0.0
 40
0.352778
 41
0.352778
  0
VERTEX
  8
0
 10
36.9794
 20
76.5843
 30
0.0
 40
0.352778
 41
0.352778
  0
VERTEX
  8
0
 10
36.9485
 20
75.9563
 30
0.0
 40
0.352778
 41
0.352778
  0
VERTEX
  8
0
 10
36.9394
 20
75.8962
 30
0.0
 40
0.352778
 41
0.352778
  0
VERTEX
  8
0
 10
36.8554
 20
75.3353
 30
0.0
 40
0.352778
 41
0.352778
  0
VERTEX
  8
0
 10
36.7035
 20
74.7253
 30
0.0
 40
0.352778
 41
0.352778
  0
VERTEX
  8
0
 10
36.4915
 20
74.1343
 30
0.0
 40
0.352778
 41
0.352778
  0
VERTEX
  8
0
 10
36.2235
 20
73.5663
 30
0.0
 40
0.352778
 41
0.352778
  0
VERTEX
  8
0
 10
35.8994
 20
73.0272
 30
0.0
 40
0.352778
 41
0.352778
  0
VERTEX
  8
0
 10
35.5254
 20
72.5222
 30
0.0
 40
0.352778
 41
0.352778
  0
VERTEX
  8
0
 10
35.1035
 20
72.0574
 30
0.0
 40
0.352778
 41
0.352778
  0
VERTEX
  8
0
 10
34.8203
 20
71.8003
 30
0.0
 40
0.352778
 41
0.352778
  0
VERTEX
  8
0
 10
34.6385
 20
71.6353
 30
0.0
 40
0.352778
 41
0.352778
  0
VERTEX
  8
0
 10
34.1335
 20
71.2613
 30
0.0
 40
0.352778
 41
0.352778
  0
VERTEX
  8
0
 10
33.5944
 20
70.9372
 30
0.0
 40
0.352778
 41
0.352778
  0
VERTEX
  8
0
 10
33.0265
 20
70.6693
 30
0.0
 40
0.352778
 41
0.352778
  0
VERTEX
  8
0
 10
32.4354
 20
70.4572
 30
0.0
 40
0.352778
 41
0.352778
  0
VERTEX
  8
0
 10
31.8254
 20
70.3053
 30
0.0
 40
0.352778
 41
0.352778
  0
VERTEX
  8
0
 10
31.2044
 20
70.2122
 30
0.0
 40
0.352778
 41
0.352778
  0
VERTEX
  8
0
 10
30.7525
 20
70.19
 30
0.0
 40
0.352778
 41
0.352778
  0
VERTEX
  8
0
 10
30.5764
 20
70.1812
 30
0.0
 40
0.352778
 41
0.352778
  0
VERTEX
  8
0
 10
29.9485
 20
70.2122
 30
0.0
 40
0.352778
 41
0.352778
  0
VERTEX
  8
0
 10
29.3275
 20
70.3053
 30
0.0
 40
0.352778
 41
0.352778
  0
VERTEX
  8
0
 10
28.7175
 20
70.4572
 30
0.0
 40
0.352778
 41
0.352778
  0
VERTEX
  8
0
 10
28.1265
 20
70.6693
 30
0.0
 40
0.352778
 41
0.352778
  0
VERTEX
  8
0
 10
27.5585
 20
70.9372
 30
0.0
 40
0.352778
 41
0.352778
  0
VERTEX
  8
0
 10
27.0194
 20
71.2613
 30
0.0
 40
0.352778
 41
0.352778
  0
VERTEX
  8
0
 10
26.5144
 20
71.6353
 30
0.0
 40
0.352778
 41
0.352778
  0
VERTEX
  8
0
 10
26.3326
 20
71.8003
 30
0.0
 40
0.352778
 41
0.352778
  0
VERTEX
  8
0
 10
26.0494
 20
72.0572
 30
0.0
 40
0.352778
 41
0.352778
  0
VERTEX
  8
0
 10
25.6275
 20
72.5222
 30
0.0
 40
0.352778
 41
0.352778
  0
VERTEX
  8
0
 10
25.2535
 20
73.0272
 30
0.0
 40
0.352778
 41
0.352778
  0
VERTEX
  8
0
 10
24.9304
 20
73.5663
 30
0.0
 40
0.352778
 41
0.352778
  0
VERTEX
  8
0
 10
24.6615
 20
74.1343
 30
0.0
 40
0.352778
 41
0.352778
  0
VERTEX
  8
0
 10
24.4494
 20
74.7253
 30
0.0
 40
0.352778
 41
0.352778
  0
VERTEX
  8
0
 10
24.2974
 20
75.3353
 30
0.0
 40
0.352778
 41
0.352778
  0
VERTEX
  8
0
 10
24.2135
 20
75.8962
 30
0.0
 40
0.352778
 41
0.352778
  0
VERTEX
  8
0
 10
24.2044
 20
75.9563
 30
0.0
 40
0.352778
 41
0.352778
  0
VERTEX
  8
0
 10
24.1744
 20
76.5843
 30
0.0
 40
0.352778
 41
0.352778
  0
VERTEX
  8
0
 10
24.2044
 20
77.2122
 30
0.0
 40
0.352778
 41
0.352778
  0
VERTEX
  8
0
 10
24.2974
 20
77.8333
 30
0.0
 40
0.352778
 41
0.352778
  0
VERTEX
  8
0
 10
24.4494
 20
78.4432
 30
0.0
 40
0.352778
 41
0.352778
  0
VERTEX
  8
0
 10
24.6614
 20
79.0343
 30
0.0
 40
0.352778
 41
0.352778
  0
VERTEX
  8
0
 10
24.9304
 20
79.6022
 30
0.0
 40
0.352778
 41
0.352778
  0
VERTEX
  8
0
 10
25.1642
 20
79.9922
 30
0.0
 40
0.352778
 41
0.352778
  0
VERTEX
  8
0
 10
25.2535
 20
80.1412
 30
0.0
 40
0.352778
 41
0.352778
  0
VERTEX
  8
0
 10
25.6275
 20
80.6462
 30
0.0
 40
0.352778
 41
0.352778
  0
VERTEX
  8
0
 10
26.0494
 20
81.1112
 30
0.0
 40
0.352778
 41
0.352778
  0
VERTEX
  8
0
 10
26.5144
 20
81.5332
 30
0.0
 40
0.352778
 41
0.352778
  0
VERTEX
  8
0
 10
27.0194
 20
81.9072
 30
0.0
 40
0.352778
 41
0.352778
  0
VERTEX
  8
0
 10
27.5585
 20
82.2312
 30
0.0
 40
0.352778
 41
0.352778
  0
VERTEX
  8
0
 10
28.1264
 20
82.4993
 30
0.0
 40
0.352778
 41
0.352778
  0
VERTEX
  8
0
 10
28.7175
 20
82.7113
 30
0.0
 40
0.352778
 41
0.352778
  0
VERTEX
  8
0
 10
29.3274
 20
82.8633
 30
0.0
 40
0.352778
 41
0.352778
  0
VERTEX
  8
0
 10
29.9485
 20
82.9563
 30
0.0
 40
0.352778
 41
0.352778
  0
VERTEX
  8
0
 10
30.5764
 20
82.9862
 30
0.0
 40
0.352778
 41
0.352778
  0
VERTEX
  8
0
 10
31.2046
 20
82.9578
 30
0.0
 40
0.352778
 41
0.352778
  0
VERTEX
  8
0
 10
31.2044
 20
82.9563
 30
0.0
 40
0.352778
 41
0.352778
  0
SEQEND
 8
0
  0
POLYLINE
  8
0
 62
     0
 66
     1
 10
0
 20
0
 30
0.0
 40
25.4
 41
25.4
  0
VERTEX
  8
0
 10
0.176378
 20
36.9876
 30
0.0
 40
0.352778
 41
0.352778
  0
VERTEX
  8
0
 10
0.176378
 20
0.184571
 30
0.0
 40
0.352778
 41
0.352778
  0
VERTEX
  8
0
 10
30.1764
 20
0.184571
 30
0.0
 40
0.352778
 41
0.352778
  0
VERTEX
  8
0
 10
30.1764
 20
60.1846
 30
0.0
 40
0.352778
 41
0.352778
  0
SEQEND
 8
0
  0
POLYLINE
  8
0
 62
     0
 66
     1
 10
0
 20
0
 30
0.0
 70
     1
 40
25.4
 41
25.4
  0
VERTEX
  8
0
 10
7.40479
 20
31.2126
 30
0.0
 40
0.352778
 41
0.352778
  0
VERTEX
  8
0
 10
7.49778
 20
31.8336
 30
0.0
 40
0.352778
 41
0.352778
  0
VERTEX
  8
0
 10
7.64979
 20
32.4436
 30
0.0
 40
0.352778
 41
0.352778
  0
VERTEX
  8
0
 10
7.86182
 20
33.0346
 30
0.0
 40
0.352778
 41
0.352778
  0
VERTEX
  8
0
 10
8.12978
 20
33.6026
 30
0.0
 40
0.352778
 41
0.352778
  0
VERTEX
  8
0
 10
8.45378
 20
34.1417
 30
0.0
 40
0.352778
 41
0.352778
  0
VERTEX
  8
0
 10
8.82781
 20
34.6467
 30
0.0
 40
0.352778
 41
0.352778
  0
VERTEX
  8
0
 10
9.24978
 20
35.1117
 30
0.0
 40
0.352778
 41
0.352778
  0
VERTEX
  8
0
 10
9.71479
 20
35.5336
 30
0.0
 40
0.352778
 41
0.352778
  0
VERTEX
  8
0
 10
10.2198
 20
35.9076
 30
0.0
 40
0.352778
 41
0.352778
  0
VERTEX
  8
0
 10
10.3688
 20
35.9972
 30
0.0
 40
0.352778
 41
0.352778
  0
VERTEX
  8
0
 10
10.7588
 20
36.2317
 30
0.0
 40
0.352778
 41
0.352778
  0
VERTEX
  8
0
 10
11.3268
 20
36.4996
 30
0.0
 40
0.352778
 41
0.352778
  0
VERTEX
  8
0
 10
11.9178
 20
36.7117
 30
0.0
 40
0.352778
 41
0.352778
  0
VERTEX
  8
0
 10
12.5278
 20
36.8636
 30
0.0
 40
0.352778
 41
0.352778
  0
VERTEX
  8
0
 10
13.1488
 20
36.9567
 30
0.0
 40
0.352778
 41
0.352778
  0
VERTEX
  8
0
 10
13.7768
 20
36.9876
 30
0.0
 40
0.352778
 41
0.352778
  0
VERTEX
  8
0
 10
14.4047
 20
36.9567
 30
0.0
 40
0.352778
 41
0.352778
  0
VERTEX
  8
0
 10
14.4647
 20
36.9476
 30
0.0
 40
0.352778
 41
0.352778
  0
VERTEX
  8
0
 10
15.0258
 20
36.8636
 30
0.0
 40
0.352778
 41
0.352778
  0
VERTEX
  8
0
 10
15.6358
 20
36.7117
 30
0.0
 40
0.352778
 41
0.352778
  0
VERTEX
  8
0
 10
16.2268
 20
36.4996
 30
0.0
 40
0.352778
 41
0.352778
  0
VERTEX
  8
0
 10
16.7949
 20
36.2317
 30
0.0
 40
0.352778
 41
0.352778
  0
VERTEX
  8
0
 10
17.3339
 20
35.9076
 30
0.0
 40
0.352778
 41
0.352778
  0
VERTEX
  8
0
 10
17.8388
 20
35.5336
 30
0.0
 40
0.352778
 41
0.352778
  0
VERTEX
  8
0
 10
18.3039
 20
35.1117
 30
0.0
 40
0.352778
 41
0.352778
  0
VERTEX
  8
0
 10
18.5608
 20
34.8285
 30
0.0
 40
0.352778
 41
0.352778
  0
VERTEX
  8
0
 10
18.7258
 20
34.6465
 30
0.0
 40
0.352778
 41
0.352778
  0
VERTEX
  8
0
 10
19.0999
 20
34.1417
 30
0.0
 40
0.352778
 41
0.352778
  0
VERTEX
  8
0
 10
19.4239
 20
33.6026
 30
0.0
 40
0.352778
 41
0.352778
  0
VERTEX
  8
0
 10
19.6918
 20
33.0346
 30
0.0
 40
0.352778
 41
0.352778
  0
VERTEX
  8
0
 10
19.9037
 20
32.4436
 30
0.0
 40
0.352778
 41
0.352778
  0
VERTEX
  8
0
 10
20.0558
 20
31.8336
 30
0.0
 40
0.352778
 41
0.352778
  0
VERTEX
  8
0
 10
20.1487
 20
31.2126
 30
0.0
 40
0.352778
 41
0.352778
  0
VERTEX
  8
0
 10
20.1711
 20
30.7607
 30
0.0
 40
0.352778
 41
0.352778
  0
VERTEX
  8
0
 10
20.1799
 20
30.5846
 30
0.0
 40
0.352778
 41
0.352778
  0
VERTEX
  8
0
 10
20.1487
 20
29.9567
 30
0.0
 40
0.352778
 41
0.352778
  0
VERTEX
  8
0
 10
20.0558
 20
29.3356
 30
0.0
 40
0.352778
 41
0.352778
  0
VERTEX
  8
0
 10
19.9037
 20
28.7256
 30
0.0
 40
0.352778
 41
0.352778
  0
VERTEX
  8
0
 10
19.6918
 20
28.1346
 30
0.0
 40
0.352778
 41
0.352778
  0
VERTEX
  8
0
 10
19.4239
 20
27.5667
 30
0.0
 40
0.352778
 41
0.352778
  0
VERTEX
  8
0
 10
19.0999
 20
27.0276
 30
0.0
 40
0.352778
 41
0.352778
  0
VERTEX
  8
0
 10
18.7258
 20
26.5226
 30
0.0
 40
0.352778
 41
0.352778
  0
VERTEX
  8
0
 10
18.5608
 20
26.3408
 30
0.0
 40
0.352778
 41
0.352778
  0
VERTEX
  8
0
 10
18.3039
 20
26.0576
 30
0.0
 40
0.352778
 41
0.352778
  0
VERTEX
  8
0
 10
17.8388
 20
25.6356
 30
0.0
 40
0.352778
 41
0.352778
  0
VERTEX
  8
0
 10
17.3339
 20
25.2617
 30
0.0
 40
0.352778
 41
0.352778
  0
VERTEX
  8
0
 10
16.7949
 20
24.9386
 30
0.0
 40
0.352778
 41
0.352778
  0
VERTEX
  8
0
 10
16.2268
 20
24.6696
 30
0.0
 40
0.352778
 41
0.352778
  0
VERTEX
  8
0
 10
15.6358
 20
24.4576
 30
0.0
 40
0.352778
 41
0.352778
  0
VERTEX
  8
0
 10
15.0258
 20
24.3056
 30
0.0
 40
0.352778
 41
0.352778
  0
VERTEX
  8
0
 10
14.4647
 20
24.2215
 30
0.0
 40
0.352778
 41
0.352778
  0
VERTEX
  8
0
 10
14.4047
 20
24.2125
 30
0.0
 40
0.352778
 41
0.352778
  0
VERTEX
  8
0
 10
13.7768
 20
24.1825
 30
0.0
 40
0.352778
 41
0.352778
  0
VERTEX
  8
0
 10
13.1488
 20
24.2125
 30
0.0
 40
0.352778
 41
0.352778
  0
VERTEX
  8
0
 10
12.5278
 20
24.3056
 30
0.0
 40
0.352778
 41
0.352778
  0
VERTEX
  8
0
 10
11.9178
 20
24.4576
 30
0.0
 40
0.352778
 41
0.352778
  0
VERTEX
  8
0
 10
11.3268
 20
24.6696
 30
0.0
 40
0.352778
 41
0.352778
  0
VERTEX
  8
0
 10
10.7588
 20
24.9386
 30
0.0
 40
0.352778
 41
0.352778
  0
VERTEX
  8
0
 10
10.3688
 20
25.1724
 30
0.0
 40
0.352778
 41
0.352778
  0
VERTEX
  8
0
 10
10.2198
 20
25.2615
 30
0.0
 40
0.352778
 41
0.352778
  0
VERTEX
  8
0
 10
9.71479
 20
25.6356
 30
0.0
 40
0.352778
 41
0.352778
  0
VERTEX
  8
0
 10
9.24978
 20
26.0575
 30
0.0
 40
0.352778
 41
0.352778
  0
VERTEX
  8
0
 10
8.82781
 20
26.5226
 30
0.0
 40
0.352778
 41
0.352778
  0
VERTEX
  8
0
 10
8.45378
 20
27.0275
 30
0.0
 40
0.352778
 41
0.352778
  0
VERTEX
  8
0
 10
8.12983
 20
27.5665
 30
0.0
 40
0.352778
 41
0.352778
  0
VERTEX
  8
0
 10
7.86182
 20
28.1346
 30
0.0
 40
0.352778
 41
0.352778
  0
VERTEX
  8
0
 10
7.64979
 20
28.7256
 30
0.0
 40
0.352778
 41
0.352778
  0
VERTEX
  8
0
 10
7.49778
 20
29.3356
 30
0.0
 40
0.352778
 41
0.352778
  0
VERTEX
  8
0
 10
7.40479
 20
29.9567
 30
0.0
 40
0.352778
 41
0.352778
  0
VERTEX
  8
0
 10
7.37478
 20
30.5846
 30
0.0
 40
0.352778
 41
0.352778
  0
VERTEX
  8
0
 10
7.40338
 20
31.2126
 30
0.0
 40
0.352778
 41
0.352778
  0
VERTEX
  8
0
 10
7.40479
 20
31.2126
 30
0.0
 40
0.352778
 41
0.352778
  0
SEQEND
 8
0
  0
POLYLINE
  8
0
 62
     0
 66
     1
 10
0
 20
0
 30
0.0
 40
25.4
 41
25.4
  0
VERTEX
  8
0
 10
60.1765
 20
60.1846
 30
0.0
 40
0.352778
 41
0.352778
  0
VERTEX
  8
0
 10
60.1765
 20
0.184571
 30
0.0
 40
0.352778
 41
0.352778
  0
VERTEX
  8
0
 10
30.1764
 20
0.184571
 30
0.0
 40
0.352778
 41
0.352778
  0
SEQEND
 8
0
  0
POLYLINE
  8
0
 62
     0
 66
     1
 10
0
 20
0
 30
0.0
 70
     1
 40
25.4
 41
25.4
  0
VERTEX
  8
0
 10
37.4049
 20
31.2126
 30
0.0
 40
0.352778
 41
0.352778
  0
VERTEX
  8
0
 10
37.4978
 20
31.8336
 30
0.0
 40
0.352778
 41
0.352778
  0
VERTEX
  8
0
 10
37.6499
 20
32.4436
 30
0.0
 40
0.352778
 41
0.352778
  0
VERTEX
  8
0
 10
37.8618
 20
33.0346
 30
0.0
 40
0.352778
 41
0.352778
  0
VERTEX
  8
0
 10
38.1299
 20
33.6026
 30
0.0
 40
0.352778
 41
0.352778
  0
VERTEX
  8
0
 10
38.4539
 20
34.1417
 30
0.0
 40
0.352778
 41
0.352778
  0
VERTEX
  8
0
 10
38.8279
 20
34.6467
 30
0.0
 40
0.352778
 41
0.352778
  0
VERTEX
  8
0
 10
39.2499
 20
35.1117
 30
0.0
 40
0.352778
 41
0.352778
  0
VERTEX
  8
0
 10
39.7149
 20
35.5336
 30
0.0
 40
0.352778
 41
0.352778
  0
VERTEX
  8
0
 10
40.2199
 20
35.9076
 30
0.0
 40
0.352778
 41
0.352778
  0
VERTEX
  8
0
 10
40.3688
 20
35.9972
 30
0.0
 40
0.352778
 41
0.352778
  0
VERTEX
  8
0
 10
40.7589
 20
36.2317
 30
0.0
 40
0.352778
 41
0.352778
  0
VERTEX
  8
0
 10
41.3268
 20
36.4996
 30
0.0
 40
0.352778
 41
0.352778
  0
VERTEX
  8
0
 10
41.9179
 20
36.7117
 30
0.0
 40
0.352778
 41
0.352778
  0
VERTEX
  8
0
 10
42.5278
 20
36.8636
 30
0.0
 40
0.352778
 41
0.352778
  0
VERTEX
  8
0
 10
43.1487
 20
36.9567
 30
0.0
 40
0.352778
 41
0.352778
  0
VERTEX
  8
0
 10
43.7768
 20
36.9876
 30
0.0
 40
0.352778
 41
0.352778
  0
VERTEX
  8
0
 10
44.4049
 20
36.9567
 30
0.0
 40
0.352778
 41
0.352778
  0
VERTEX
  8
0
 10
44.4649
 20
36.9476
 30
0.0
 40
0.352778
 41
0.352778
  0
VERTEX
  8
0
 10
45.0258
 20
36.8636
 30
0.0
 40
0.352778
 41
0.352778
  0
VERTEX
  8
0
 10
45.6358
 20
36.7117
 30
0.0
 40
0.352778
 41
0.352778
  0
VERTEX
  8
0
 10
46.2268
 20
36.4996
 30
0.0
 40
0.352778
 41
0.352778
  0
VERTEX
  8
0
 10
46.7949
 20
36.2317
 30
0.0
 40
0.352778
 41
0.352778
  0
VERTEX
  8
0
 10
47.3339
 20
35.9076
 30
0.0
 40
0.352778
 41
0.352778
  0
VERTEX
  8
0
 10
47.8389
 20
35.5336
 30
0.0
 40
0.352778
 41
0.352778
  0
VERTEX
  8
0
 10
48.3039
 20
35.1117
 30
0.0
 40
0.352778
 41
0.352778
  0
VERTEX
  8
0
 10
48.5608
 20
34.8285
 30
0.0
 40
0.352778
 41
0.352778
  0
VERTEX
  8
0
 10
48.7258
 20
34.6465
 30
0.0
 40
0.352778
 41
0.352778
  0
VERTEX
  8
0
 10
49.0999
 20
34.1417
 30
0.0
 40
0.352778
 41
0.352778
  0
VERTEX
  8
0
 10
49.4239
 20
33.6026
 30
0.0
 40
0.352778
 41
0.352778
  0
VERTEX
  8
0
 10
49.6918
 20
33.0346
 30
0.0
 40
0.352778
 41
0.352778
  0
VERTEX
  8
0
 10
49.9039
 20
32.4436
 30
0.0
 40
0.352778
 41
0.352778
  0
VERTEX
  8
0
 10
50.0558
 20
31.8336
 30
0.0
 40
0.352778
 41
0.352778
  0
VERTEX
  8
0
 10
50.1489
 20
31.2126
 30
0.0
 40
0.352778
 41
0.352778
  0
VERTEX
  8
0
 10
50.1711
 20
30.7607
 30
0.0
 40
0.352778
 41
0.352778
  0
VERTEX
  8
0
 10
50.1799
 20
30.5846
 30
0.0
 40
0.352778
 41
0.352778
  0
VERTEX
  8
0
 10
50.1489
 20
29.9567
 30
0.0
 40
0.352778
 41
0.352778
  0
VERTEX
  8
0
 10
50.0558
 20
29.3356
 30
0.0
 40
0.352778
 41
0.352778
  0
VERTEX
  8
0
 10
49.9039
 20
28.7256
 30
0.0
 40
0.352778
 41
0.352778
  0
VERTEX
  8
0
 10
49.6918
 20
28.1346
 30
0.0
 40
0.352778
 41
0.352778
  0
VERTEX
  8
0
 10
49.4239
 20
27.5667
 30
0.0
 40
0.352778
 41
0.352778
  0
VERTEX
  8
0
 10
49.0999
 20
27.0276
 30
0.0
 40
0.352778
 41
0.352778
  0
VERTEX
  8
0
 10
48.7258
 20
26.5226
 30
0.0
 40
0.352778
 41
0.352778
  0
VERTEX
  8
0
 10
48.5608
 20
26.3408
 30
0.0
 40
0.352778
 41
0.352778
  0
VERTEX
  8
0
 10
48.3039
 20
26.0576
 30
0.0
 40
0.352778
 41
0.352778
  0
VERTEX
  8
0
 10
47.8389
 20
25.6356
 30
0.0
 40
0.352778
 41
0.352778
  0
VERTEX
  8
0
 10
47.3339
 20
25.2617
 30
0.0
 40
0.352778
 41
0.352778
  0
VERTEX
  8
0
 10
46.7949
 20
24.9386
 30
0.0
 40
0.352778
 41
0.352778
  0
VERTEX
  8
0
 10
46.2268
 20
24.6696
 30
0.0
 40
0.352778
 41
0.352778
  0
VERTEX
  8
0
 10
45.6358
 20
24.4576
 30
0.0
 40
0.352778
 41
0.352778
  0
VERTEX
  8
0
 10
45.0258
 20
24.3056
 30
0.0
 40
0.352778
 41
0.352778
  0
VERTEX
  8
0
 10
44.4649
 20
24.2215
 30
0.0
 40
0.352778
 41
0.352778
  0
VERTEX
  8
0
 10
44.4049
 20
24.2125
 30
0.0
 40
0.352778
 41
0.352778
  0
VERTEX
  8
0
 10
43.7768
 20
24.1825
 30
0.0
 40
0.352778
 41
0.352778
  0
VERTEX
  8
0
 10
43.1489
 20
24.2125
 30
0.0
 40
0.352778
 41
0.352778
  0
VERTEX
  8
0
 10
42.5278
 20
24.3056
 30
0.0
 40
0.352778
 41
0.352778
  0
VERTEX
  8
0
 10
41.9179
 20
24.4576
 30
0.0
 40
0.352778
 41
0.352778
  0
VERTEX
  8
0
 10
41.3269
 20
24.6696
 30
0.0
 40
0.352778
 41
0.352778
  0
VERTEX
  8
0
 10
40.7589
 20
24.9386
 30
0.0
 40
0.352778
 41
0.352778
  0
VERTEX
  8
0
 10
40.3689
 20
25.1724
 30
0.0
 40
0.352778
 41
0.352778
  0
VERTEX
  8
0
 10
40.2199
 20
25.2615
 30
0.0
 40
0.352778
 41
0.352778
  0
VERTEX
  8
0
 10
39.7149
 20
25.6356
 30
0.0
 40
0.352778
 41
0.352778
  0
VERTEX
  8
0
 10
39.2499
 20
26.0575
 30
0.0
 40
0.352778
 41
0.352778
  0
VERTEX
  8
0
 10
38.8279
 20
26.5226
 30
0.0
 40
0.352778
 41
0.352778
  0
VERTEX
  8
0
 10
38.4539
 20
27.0275
 30
0.0
 40
0.352778
 41
0.352778
  0
VERTEX
  8
0
 10
38.1299
 20
27.5665
 30
0.0
 40
0.352778
 41
0.352778
  0
VERTEX
  8
0
 10
37.8618
 20
28.1346
 30
0.0
 40
0.352778
 41
0.352778
  0
VERTEX
  8
0
 10
37.6499
 20
28.7256
 30
0.0
 40
0.352778
 41
0.352778
  0
VERTEX
  8
0
 10
37.4978
 20
29.3356
 30
0.0
 40
0.352778
 41
0.352778
  0
VERTEX
  8
0
 10
37.4049
 20
29.9567
 30
0.0
 40
0.352778
 41
0.352778
  0
VERTEX
  8
0
 10
37.3749
 20
30.5846
 30
0.0
 40
0.352778
 41
0.352778
  0
VERTEX
  8
0
 10
37.3829
 20
30.7606
 30
0.0
 40
0.352778
 41
0.352778
  0
VERTEX
  8
0
 10
37.4049
 20
31.2126
 30
0.0
 40
0.352778
 41
0.352778
  0
SEQEND
 8
0
  0
ENDSEC
  0
EOF
