  0
SECTION
  2
HEADER
  9
$ACADVER
  1
AC1014
  9
$HANDSEED
  5
FFFF
  9
$MEASUREMENT
 70
     1
  0
ENDSEC
  0
SECTION
  2
TABLES
  0
TABLE
  2
VPORT
  5
8
330
0
100
AcDbSymbolTable
 70
     4
  0
VPORT
  5
2E
330
8
100
AcDbSymbolTableRecord
100
AcDbViewportTableRecord
  2
*ACTIVE
 70
     0
 10
0.0
 20
0.0
 11
1.0
 21
1.0
 12
210.0
 22
148.5
 13
0.0
 23
0.0
 14
10.0
 24
10.0
 15
10.0
 25
10.0
 16
0.0
 26
0.0
 36
1.0
 17
0.0
 27
0.0
 37
0.0
 40
341.0
 41
1.24
 42
50.0
 43
0.0
 44
0.0
 50
0.0
 51
0.0
 71
     0
 72
   100
 73
     1
 74
     3
 75
     0
 76
     0
 77
     0
 78
     0
  0
ENDTAB
  0
TABLE
  2
LTYPE
  5
5
330
0
100
AcDbSymbolTable
 70
     1
  0
LTYPE
  5
14
330
5
100
AcDbSymbolTableRecord
100
AcDbLinetypeTableRecord
  2
BYBLOCK
 70
     0
  3

 72
    65
 73
     0
 40
0.0
  0
LTYPE
  5
15
330
5
100
AcDbSymbolTableRecord
100
AcDbLinetypeTableRecord
  2
BYLAYER
 70
     0
  3

 72
    65
 73
     0
 40
0.0
  0
LTYPE
  5
16
330
5
100
AcDbSymbolTableRecord
100
AcDbLinetypeTableRecord
  2
CONTINUOUS
 70
     0
  3
Solid line
 72
    65
 73
     0
 40
0.0
  0
ENDTAB
  0
TABLE
  2
LAYER
  5
2
100
AcDbSymbolTable
 70
2
  0
LAYER
  5
50
100
AcDbSymbolTableRecord
100
AcDbLayerTableRecord
  2
0
 70
0
  6
CONTINUOUS
  0
LAYER
  5
51
100
AcDbSymbolTableRecord
100
AcDbLayerTableRecord
  2
Layer_1
 70
0
  6
CONTINUOUS
  0
ENDTAB
  0
TABLE
  2
STYLE
  5
3
330
0
100
AcDbSymbolTable
 70
     1
  0
STYLE
  5
11
330
3
100
AcDbSymbolTableRecord
100
AcDbTextStyleTableRecord
  2
STANDARD
 70
     0
 40
0.0
 41
1.0
 50
0.0
 71
     0
 42
2.5
  3
txt
  4

  0
ENDTAB
  0
TABLE
  2
VIEW
  5
6
330
0
100
AcDbSymbolTable
 70
     0
  0
ENDTAB
  0
TABLE
  2
UCS
  5
7
330
0
100
AcDbSymbolTable
 70
     0
  0
ENDTAB
  0
TABLE
  2
APPID
  5
9
330
0
100
AcDbSymbolTable
 70
     2
  0
APPID
  5
12
330
9
100
AcDbSymbolTableRecord
100
AcDbRegAppTableRecord
  2
ACAD
 70
     0
  0
ENDTAB
  0
TABLE
  2
DIMSTYLE
  5
A
330
0
100
AcDbSymbolTable
 70
     1
  0
DIMSTYLE
105
27
330
A
100
AcDbSymbolTableRecord
100
AcDbDimStyleTableRecord
  2
ISO-25
 70
     0
  3

  4

  5

  6

  7

 40
1.0
 41
2.5
 42
0.625
 43
3.75
 44
1.25
 45
0.0
 46
0.0
 47
0.0
 48
0.0
140
2.5
141
2.5
142
0.0
143
0.03937007874016
144
1.0
145
0.0
146
1.0
147
0.625
 71
     0
 72
     0
 73
     0
 74
     0
 75
     0
 76
     0
 77
     1
 78
     8
170
     0
171
     3
172
     1
173
     0
174
     0
175
     0
176
     0
177
     0
178
     0
270
     2
271
     2
272
     2
273
     2
274
     3
340
11
275
     0
280
     0
281
     0
282
     0
283
     0
284
     8
285
     0
286
     0
287
     3
288
     0
  0
ENDTAB
  0
TABLE
  2
BLOCK_RECORD
  5
1
330
0
100
AcDbSymbolTable
 70
     1
  0
BLOCK_RECORD
  5
1F
330
1
100
AcDbSymbolTableRecord
100
AcDbBlockTableRecord
  2
*MODEL_SPACE
  0
BLOCK_RECORD
  5
1B
330
1
100
AcDbSymbolTableRecord
100
AcDbBlockTableRecord
  2
*PAPER_SPACE
  0
ENDTAB
  0
ENDSEC
  0
SECTION
  2
BLOCKS
  0
BLOCK
  5
20
330
1F
100
AcDbEntity
  8
0
100
AcDbBlockBegin
  2
*MODEL_SPACE
 70
     0
 10
0.0
 20
0.0
 30
0.0
  3
*MODEL_SPACE
  1

  0
ENDBLK
  5
21
330
1F
100
AcDbEntity
  8
0
100
AcDbBlockEnd
  0
BLOCK
  5
1C
330
1B
100
AcDbEntity
 67
     1
  8
0
100
AcDbBlockBegin
  2
*PAPER_SPACE
  1

  0
ENDBLK
  5
1D
330
1B
100
AcDbEntity
 67
     1
  8
0
100
AcDbBlockEnd
  0
ENDSEC
  0
SECTION
  2
ENTITIES
  0
LWPOLYLINE
  5
100
100
AcDbEntity
  8
Layer_1
 62
1
100
AcDbPolyline
 90
133
 70
1
 10
134.239050
 20
220.049538
 30
0.0
 10
134.252250
 20
220.034538
 30
0.0
 10
134.349050
 20
219.924548
 30
0.0
 10
134.429050
 20
219.789538
 30
0.0
 10
134.433050
 20
219.778538
 30
0.0
 10
134.478250
 20
219.647538
 30
0.0
 10
134.494250
 20
219.501538
 30
0.0
 10
134.494250
 20
219.266538
 30
0.0
 10
134.494250
 20
218.754538
 30
0.0
 10
134.494250
 20
217.730538
 30
0.0
 10
134.494250
 20
215.682538
 30
0.0
 10
134.494250
 20
211.586538
 30
0.0
 10
134.494250
 20
203.394538
 30
0.0
 10
134.494250
 20
195.202540
 30
0.0
 10
134.494250
 20
187.010540
 30
0.0
 10
134.494250
 20
178.818540
 30
0.0
 10
134.494250
 20
170.626540
 30
0.0
 10
134.494250
 20
162.434540
 30
0.0
 10
134.494250
 20
154.242540
 30
0.0
 10
134.494250
 20
146.050540
 30
0.0
 10
134.494250
 20
137.858540
 30
0.0
 10
134.494250
 20
129.666540
 30
0.0
 10
134.494250
 20
121.474540
 30
0.0
 10
134.494250
 20
113.282540
 30
0.0
 10
134.494250
 20
105.090540
 30
0.0
 10
134.494250
 20
96.898540
 30
0.0
 10
134.494250
 20
88.706540
 30
0.0
 10
134.494250
 20
84.610540
 30
0.0
 10
134.494250
 20
82.562540
 30
0.0
 10
134.494250
 20
81.538540
 30
0.0
 10
134.494250
 20
81.367540
 30
0.0
 10
134.485250
 20
81.282540
 30
0.0
 10
134.478250
 20
81.221540
 30
0.0
 10
134.429250
 20
81.079530
 30
0.0
 10
134.397850
 20
81.026530
 30
0.0
 10
134.349250
 20
80.944530
 30
0.0
 10
134.254250
 20
80.836580
 30
0.0
 10
134.239250
 20
80.819580
 30
0.0
 10
134.179750
 20
80.770580
 30
0.0
 10
134.103250
 20
80.707580
 30
0.0
 10
133.998250
 20
80.644880
 30
0.0
 10
133.944250
 20
80.612580
 30
0.0
 10
133.766250
 20
80.536580
 30
0.0
 10
133.742250
 20
80.529580
 30
0.0
 10
133.690450
 20
80.514580
 30
0.0
 10
133.573270
 20
80.480580
 30
0.0
 10
133.369270
 20
80.445580
 30
0.0
 10
133.161270
 20
80.434580
 30
0.0
 10
128.878270
 20
80.434580
 30
0.0
 10
112.494270
 20
80.434580
 30
0.0
 10
96.110271
 20
80.434580
 30
0.0
 10
79.726261
 20
80.434580
 30
0.0
 10
63.342261
 20
80.434580
 30
0.0
 10
55.827271
 20
80.434580
 30
0.0
 10
55.619271
 20
80.445580
 30
0.0
 10
55.415271
 20
80.480580
 30
0.0
 10
55.298091
 20
80.514580
 30
0.0
 10
55.222291
 20
80.536580
 30
0.0
 10
55.150291
 20
80.567380
 30
0.0
 10
55.044291
 20
80.612680
 30
0.0
 10
54.885291
 20
80.707680
 30
0.0
 10
54.808791
 20
80.770680
 30
0.0
 10
54.749291
 20
80.819680
 30
0.0
 10
54.639291
 20
80.944680
 30
0.0
 10
54.638291
 20
80.946680
 30
0.0
 10
54.590691
 20
81.026980
 30
0.0
 10
54.559291
 20
81.079980
 30
0.0
 10
54.510291
 20
81.221980
 30
0.0
 10
54.494291
 20
81.367980
 30
0.0
 10
54.494291
 20
81.538980
 30
0.0
 10
54.494291
 20
82.562980
 30
0.0
 10
54.494291
 20
84.610980
 30
0.0
 10
54.494291
 20
88.706980
 30
0.0
 10
54.494291
 20
96.898980
 30
0.0
 10
54.494291
 20
105.090980
 30
0.0
 10
54.494291
 20
113.282980
 30
0.0
 10
54.494291
 20
121.474980
 30
0.0
 10
54.494291
 20
129.666980
 30
0.0
 10
54.494291
 20
137.858980
 30
0.0
 10
54.494291
 20
146.050980
 30
0.0
 10
54.494291
 20
154.242980
 30
0.0
 10
54.494291
 20
162.434980
 30
0.0
 10
54.494291
 20
170.626980
 30
0.0
 10
54.494291
 20
178.818980
 30
0.0
 10
54.494291
 20
187.010980
 30
0.0
 10
54.494291
 20
195.202980
 30
0.0
 10
54.494291
 20
203.394978
 30
0.0
 10
54.494291
 20
211.586978
 30
0.0
 10
54.494291
 20
215.682978
 30
0.0
 10
54.494291
 20
217.730988
 30
0.0
 10
54.494291
 20
218.754978
 30
0.0
 10
54.494291
 20
219.266978
 30
0.0
 10
54.494291
 20
219.501988
 30
0.0
 10
54.510291
 20
219.647988
 30
0.0
 10
54.555491
 20
219.778988
 30
0.0
 10
54.559491
 20
219.789988
 30
0.0
 10
54.638491
 20
219.923298
 30
0.0
 10
54.639491
 20
219.925298
 30
0.0
 10
54.736291
 20
220.035288
 30
0.0
 10
54.749491
 20
220.050288
 30
0.0
 10
54.885481
 20
220.162288
 30
0.0
 10
54.894481
 20
220.167288
 30
0.0
 10
55.044481
 20
220.256888
 30
0.0
 10
55.124081
 20
220.290888
 30
0.0
 10
55.150481
 20
220.302188
 30
0.0
 10
55.222481
 20
220.332888
 30
0.0
 10
55.406481
 20
220.386288
 30
0.0
 10
55.415481
 20
220.389288
 30
0.0
 10
55.619481
 20
220.424288
 30
0.0
 10
55.662481
 20
220.426288
 30
0.0
 10
55.827481
 20
220.435288
 30
0.0
 10
56.174481
 20
220.435288
 30
0.0
 10
57.198481
 20
220.435288
 30
0.0
 10
59.246481
 20
220.435288
 30
0.0
 10
63.342481
 20
220.435288
 30
0.0
 10
71.534481
 20
220.435288
 30
0.0
 10
79.726481
 20
220.435288
 30
0.0
 10
87.918481
 20
220.435288
 30
0.0
 10
96.110481
 20
220.435288
 30
0.0
 10
104.302480
 20
220.435288
 30
0.0
 10
112.494480
 20
220.435288
 30
0.0
 10
120.686480
 20
220.435288
 30
0.0
 10
128.878480
 20
220.435288
 30
0.0
 10
132.974480
 20
220.435288
 30
0.0
 10
133.161480
 20
220.435288
 30
0.0
 10
133.369480
 20
220.424288
 30
0.0
 10
133.486480
 20
220.404188
 30
0.0
 10
133.573480
 20
220.389288
 30
0.0
 10
133.766480
 20
220.333288
 30
0.0
 10
133.864880
 20
220.291288
 30
0.0
 10
133.944480
 20
220.257288
 30
0.0
 10
133.998480
 20
220.224988
 30
0.0
 10
134.103480
 20
220.162288
 30
0.0
  0
ENDSEC
  0
SECTION
  2
OBJECTS
  0
DICTIONARY
  5
C
330
0
100
AcDbDictionary
  3
ACAD_GROUP
350
D
  3
ACAD_MLINESTYLE
350
17
  0
DICTIONARY
  5
D
330
C
100
AcDbDictionary
  0
DICTIONARY
  5
1A
330
C
100
AcDbDictionary
  0
DICTIONARY
  5
17
330
C
100
AcDbDictionary
  3
STANDARD
350
18
  0
DICTIONARY
  5
19
330
C
100
AcDbDictionary
  0
ENDSEC
  0
EOF
