<?xml version="1.0" standalone="no"?>
<!DOCTYPE svg PUBLIC "-//W3C//DTD SVG 1.1//EN"
  "http://www.w3.org/Graphics/SVG/1.1/DTD/svg11.dtd">
<svg width="62mm" height="31.999999999999993mm" viewBox="-55 -28.999999999999993 62 31.999999999999993" xmlns="http://www.w3.org/2000/svg" version="1.1">
	<title>svgOutput</title>
	<desc>made with tinkercad</desc>
<path d="M 6 1.9999999999999996 L -30.80299949645996 1.9999999999999996 L -54 1.9999999999999996 L -54 -27.999999999999993 L -30.80299949645996 -27.999999999999993 L -17.99799919128418 -27.999999999999993 L 6 -27.999999999999993 L 6 -5.197999954223632 L 6 1.9999999999999996 M -24.576000213623047 -5.206407546997069 L -24.399999618530273 -5.197999954223632 L -23.77199935913086 -5.2280001640319815 L -23.150999069213867 -5.321000099182128 L -22.541000366210938 -5.473000049591064 L -21.950000762939453 -5.68499994277954 L -21.381999969482422 -5.95300006866455 L -20.843000411987305 -6.276999950408934 L -20.33799934387207 -6.651000022888182 L -19.87299919128418 -7.072999954223631 L -19.451000213623047 -7.538000106811522 L -19.07699966430664 -8.04300022125244 L -18.98771095275879 -8.19200038909912 L -18.753999710083008 -8.581999778747557 L -18.485000610351562 -9.149999618530272 L -18.273000717163086 -9.741000175476072 L -18.121000289916992 -10.350999832153319 L -18.027999877929688 -10.97200012207031 L -17.99799919128418 -11.600000381469725 L -18.027999877929688 -12.22799968719482 L -18.036985397338867 -12.28800010681152 L -18.121000289916992 -12.848999977111813 L -18.273000717163086 -13.458999633789059 L -18.485000610351562 -14.05000019073486 L -18.753999710083008 -14.618000030517575 L -19.07699966430664 -15.156999588012692 L -19.451000213623047 -15.66199970245361 L -19.87299919128418 -16.127000808715817 L -20.156187057495117 -16.38400077819824 L -20.33799934387207 -16.54899978637695 L -20.843000411987305 -16.923000335693356 L -21.381999969482422 -17.246999740600582 L -21.950000762939453 -17.514999389648434 L -22.541000366210938 -17.72699928283691 L -23.150999069213867 -17.878999710083004 L -23.77199935913086 -17.97200012207031 L -24.399999618530273 -18.00300025939941 L -24.576000213623047 -17.99431228637695 L -25.027999877929688 -17.97200012207031 L -25.64900016784668 -17.878999710083004 L -26.259000778198242 -17.72699928283691 L -26.850000381469727 -17.514999389648434 L -27.417999267578125 -17.246999740600582 L -27.957000732421875 -16.923000335693356 L -28.461999893188477 -16.54899978637695 L -28.64381217956543 -16.38400077819824 L -28.927000045776367 -16.127000808715817 L -29.349000930786133 -15.66199970245361 L -29.722999572753906 -15.156999588012692 L -30.047000885009766 -14.618000030517575 L -30.315000534057617 -14.05000019073486 L -30.527000427246094 -13.458999633789059 L -30.679000854492188 -12.848999977111813 L -30.76301383972168 -12.28800010681152 L -30.77199935913086 -12.22799968719482 L -30.80299949645996 -11.600000381469725 L -30.77199935913086 -10.97200012207031 L -30.679000854492188 -10.350999832153319 L -30.527000427246094 -9.741000175476072 L -30.315000534057617 -9.149999618530272 L -30.047000885009766 -8.581999778747557 L -29.81256675720215 -8.19200038909912 L -29.722999572753906 -8.04300022125244 L -29.349000930786133 -7.538000106811522 L -28.927000045776367 -7.072999954223631 L -28.461999893188477 -6.651000022888182 L -27.957000732421875 -6.276999950408934 L -27.417999267578125 -5.95300006866455 L -26.850000381469727 -5.68499994277954 L -26.259000778198242 -5.473000049591064 L -25.64900016784668 -5.321000099182128 L -25.027999877929688 -5.2280001640319815 L -24.576000213623047 -5.206407546997069 z" fill="none" stroke="rgb(255,0,0)" stroke-width="0.001mm" />
</svg>